<svg id="Layer_1" data-name="Layer 1" xmlns="http://www.w3.org/2000/svg" viewBox="0 0 960 330"><defs><style>.cls-1{fill:#ffc300;}.cls-2{fill:#003566;}.cls-3{fill:#fdc008;}.cls-4{fill:#4c5f65;}.cls-5{fill:#f58208;}.cls-6{fill:#fe4701;}.cls-7{fill:#7a5647;}.cls-8{fill:#a9b7be;}</style></defs><path class="cls-1" d="M134.62,226.6H106.14V153.84l-32.23,53.1h-3.2l-32.23-53.1V226.6H10V101.47H38.48l33.83,55.59,33.83-55.59h28.48Z"/><path class="cls-1" d="M155.1,186.2V101.47h28.48V183.7c0,9.47,4.45,17.52,19.58,17.52s19.59-8.05,19.59-17.52V101.47h28.48V186.2c0,26.81-20.65,42.9-48.07,42.9S155.1,213,155.1,186.2Z"/><path class="cls-1" d="M364.28,190c0,22.17-18,36.65-40.23,36.65H271.71V101.47h48.78c21.72,0,39.34,14.12,39.34,35.75,0,10.37-4.09,18.59-10.86,24.49C358.23,167.61,364.28,177.26,364.28,190Zm-64.09-61.67v22.17h20.3c6.41,0,10.86-4.65,10.86-11.08s-4.27-11.09-10.86-11.09Zm35.61,59.53c0-7-4.63-12-11.75-12H300.19v24h23.86C331.17,199.79,335.8,194.78,335.8,187.81Z"/><path class="cls-2" d="M420.54,185.49H407V226.6H378.53V101.47h49.85a42.71,42.71,0,0,1,42.72,42.9c0,15.37-9.25,29.32-23,36.29l26.52,45.94H444Zm-13.53-25h21.37c7.83,0,14.24-7,14.24-16.09s-6.41-16.09-14.24-16.09H407Z"/><path class="cls-2" d="M516.5,101.47V226.6H488V101.47Z"/><path class="cls-2" d="M648.25,164c0,35.4-26.17,62.57-60.53,62.57H537.87V101.47h49.85C622.08,101.47,648.25,128.64,648.25,164Zm-27.42,0c0-21.45-13.53-35-33.11-35H566.35v70.07h21.37C607.3,199.07,620.83,185.49,620.83,164Z"/><path class="cls-2" d="M742.6,199.07V226.6H664.27V101.47h77.44V129h-49v20.73h44.5v27.18h-44.5v22.16Z"/><path class="cls-3" d="M782.78,182.49c-.1-22.62-.23-45.25-.26-67.88,0-9.14,4.81-13.63,13.87-13.64q57.18,0,114.36-.07c6.71,0,10.79,3.64,13.86,8.93,12.33,21.27,20.18,43.92,20.78,68.76-6.85-.68-9.78,2-9.8,9.29s2.09,11.09,9.83,10.22c-.78,11.55-.88,11.61-19,11.61-2.93-13.16-9.72-19.67-20.21-19.4-10.18.27-16.4,6.56-19.23,19.41H837.12c-2.94-13.16-9.72-19.67-20.22-19.4-10.17.27-16.4,6.56-19.23,19.41-13.83-.08-14.65-.73-14.89-11.65,5.74.2,7.6-3,7.51-8.26C790.19,184.73,787.8,182.35,782.78,182.49Zm50.14-46.38c0-4.2-.33-8.42.07-12.58.84-8.61-3-11.57-11.3-11-7.71.49-15.47.2-23.2.09-5.6-.08-8.37,2.39-8.28,8.11.1,6.45,0,12.9,0,19.35-.07,20.86-1.4,19.28,19.45,19.16C836,159,832.72,162.34,832.92,136.11Zm50.46,0c0-4.19-.33-8.42.07-12.57.83-8.6-3-11.59-11.29-11.07-7.71.49-15.47.2-23.2.09-5.6-.08-8.38,2.38-8.29,8.1.1,6.45,0,12.9,0,19.35-.07,20.86-1.41,19.29,19.43,19.17C886.42,159,883.18,162.35,883.38,136.12Zm7.76-.83c0,4.53.26,9.08-.06,13.59-.53,7.38,2.29,10.82,10,10.42s15.52,0,23.28-.12c8.73-.19,10.77-3,8.57-11.64a117.09,117.09,0,0,0-9.06-23.47c-5.63-11.25-14.5-15.17-27.36-11.18-9.6,3-3.89,11.57-5.34,17.56C890.82,132,891.14,133.67,891.14,135.29Z"/><path class="cls-4" d="M797.67,209.72c2.83-12.85,9.06-19.14,19.23-19.41,10.5-.27,17.28,6.24,20.22,19.4-2.92,13.1-9.75,19.65-20.21,19.38C806.78,228.84,800.48,222.48,797.67,209.72Zm27.54-.6c-1-3.61-2.92-6.91-7.44-7-4.87-.08-7.89,2.82-7.93,7.68,0,4.41,2.82,7.26,7.17,7.44C821.93,217.46,824.43,214.33,825.21,209.12Z"/><path class="cls-4" d="M887,209.72c2.83-12.85,9-19.14,19.23-19.41,10.49-.27,17.28,6.24,20.21,19.4-2.91,13.1-9.74,19.65-20.21,19.38C896.05,228.84,889.75,222.48,887,209.72Zm27.44.31c-.39-4.49-2.69-7.53-7-7.87-4.86-.39-8,2.5-8.26,7.33-.26,4.45,2.59,7.36,6.86,7.75C910.87,217.69,913.48,214.61,914.39,210Z"/><path class="cls-5" d="M945.42,198.1c-7.74.87-9.85-3-9.83-10.22s2.95-10,9.8-9.29C951.58,185.08,951.48,191.58,945.42,198.1Z"/><path class="cls-6" d="M782.78,182.49c5-.14,7.41,2.24,7.51,7.32.09,5.28-1.77,8.46-7.51,8.26Z"/><path class="cls-7" d="M832.92,136.11c-.2,26.23,3.05,22.93-23.25,23.08-20.85.12-19.52,1.7-19.45-19.16,0-6.45.09-12.9,0-19.35-.09-5.72,2.68-8.19,8.28-8.11,7.73.11,15.49.4,23.2-.09,8.27-.52,12.14,2.44,11.3,11C832.59,127.69,832.92,131.91,832.92,136.11Z"/><path class="cls-7" d="M883.38,136.12c-.2,26.23,3,22.92-23.27,23.07-20.84.12-19.5,1.69-19.43-19.17,0-6.45.09-12.9,0-19.35-.09-5.72,2.69-8.18,8.29-8.1,7.73.11,15.49.4,23.2-.09,8.28-.52,12.12,2.47,11.29,11.07C883.05,127.7,883.38,131.93,883.38,136.12Z"/><path class="cls-7" d="M891.14,135.29c0-1.62-.32-3.32.05-4.84,1.45-6-4.26-14.59,5.34-17.56,12.86-4,21.73-.07,27.36,11.18A117.09,117.09,0,0,1,933,147.54c2.2,8.64.16,11.45-8.57,11.64-7.76.16-15.54-.28-23.28.12s-10.55-3-10-10.42C891.4,144.37,891.14,139.82,891.14,135.29Z"/><path class="cls-8" d="M825.21,209.12c-.78,5.21-3.28,8.34-8.2,8.13-4.35-.18-7.2-3-7.17-7.44,0-4.86,3.06-7.76,7.93-7.68C822.29,202.21,824.24,205.51,825.21,209.12Z"/><path class="cls-8" d="M914.39,210c-.91,4.58-3.52,7.66-8.42,7.21-4.27-.39-7.12-3.3-6.86-7.75.29-4.83,3.4-7.72,8.26-7.33C911.7,202.5,914,205.54,914.39,210Z"/></svg>